<svg id="Layer_1" data-name="Layer 1" xmlns="http://www.w3.org/2000/svg" viewBox="0 0 1024 1024"><defs><style>.cls-1{fill:#085870;}.cls-2{fill:#fff;}.cls-3{fill:#f5891f;}.cls-4{fill:#97d4e8;}</style></defs><title>kogito_icon_rgb_color_default</title><path class="cls-1" d="M929.37,30.5A70.31,70.31,0,0,0,872.19,1C868.09,1,738,23.67,738,23.67a70.15,70.15,0,0,0-48.1,33.25L668,93.77c-48.41-42.46-101.74-64.7-156-64.7S404.43,51.31,356,93.77L334.11,56.92A70.13,70.13,0,0,0,286,23.67S155.9,1,151.81,1A70.19,70.19,0,0,0,90.54,105.41l50.24,90a115.12,115.12,0,0,0,60.3,169.9L108.3,794.6,512,1023,915.7,794.6,822.92,365.27a115.12,115.12,0,0,0,60.3-169.9l50.24-90A70.49,70.49,0,0,0,929.37,30.5Z"/><path class="cls-2" d="M480.09,278.3l8.57-.09L512,301.4l23.19-23.19,8.6.08c63.23.63,123.82,3.14,176.28,7.27-45.94-99.49-122-186.3-208-186.3S349.9,186.07,304,285.57C356.39,281.44,416.94,278.92,480.09,278.3Z"/><path class="cls-3" d="M448.7,696.16a116.36,116.36,0,0,0,131.17.51,581.47,581.47,0,0,0-131.17-.51Z"/><path class="cls-4" d="M691.57,679.73a185.44,185.44,0,0,0-17.27-41.47c-1.21-2.12-2.5-4.18-3.78-6.24-.73-1.19-1.43-2.41-2.19-3.58-1.2-1.85-2.49-3.63-3.75-5.43-.94-1.34-1.85-2.71-2.82-4-1.12-1.51-2.32-3-3.48-4.43s-2.38-3.08-3.64-4.57c-1-1.18-2-2.29-3-3.44A186.69,186.69,0,0,0,570.73,553c-17.25,11.56-39,22.69-58.73,22.69S470.52,564.57,453.27,553a186.59,186.59,0,0,0-80.91,53.6c-1,1.13-2,2.22-3,3.37-1.26,1.5-2.44,3.06-3.66,4.6s-2.34,2.91-3.46,4.41c-1,1.32-1.88,2.69-2.83,4-1.26,1.79-2.54,3.56-3.73,5.4-.77,1.19-1.48,2.42-2.22,3.62-1.27,2.05-2.56,4.1-3.75,6.21a185,185,0,0,0-17.28,41.47c12.84-4.4,26.43-8.23,40.46-11.67,0,0-.05-.09-.07-.14,1.45-.35,2.95-.66,4.41-1l16.95-47.26v43.51c1-.2,2-.34,3-.54q9.44-1.85,19.14-3.39c.79-.13,1.57-.27,2.36-.39q11.74-1.83,23.86-3.2l13.87-55.51v54.09c8.56-.77,17.26-1.31,26-1.72l3.92-.17c3.27-.13,6.53-.27,9.83-.35,5.23-.14,10.5-.23,15.8-.23,5.49,0,10.93.1,16.34.25,2.9.08,5.79.19,8.67.31l5.75.26c8.36.41,16.66.94,24.82,1.68V600.13l13.88,55.53c.55.06,1.09.15,1.65.22,7.3.85,14.54,1.79,21.65,2.89,2.73.41,5.38.92,8.08,1.37,3.95.68,7.9,1.35,11.78,2.1,1.72.32,3.5.58,5.2.92V619.65l17,47.29c1.23.29,2.4.64,3.62.94,1.84.45,3.72.86,5.54,1.32l-.06.1C668.19,672.44,680.21,675.83,691.57,679.73Z"/><path class="cls-3" d="M737.57,328.07l-10-.84c-51.56-4.38-112.13-7.1-175.67-7.9L512,359.24l-40.09-39.91c-63.48.81-124,3.53-175.54,7.9l-10,.85C268.27,377.82,258,428.11,258,470.24c0,69.94,28.31,104.16,74,120.93A229.48,229.48,0,0,1,418.28,523a20.43,20.43,0,0,1,32.16-24.16c16.12,14.9,45.89,35.91,61.56,35.91s45.94-21.43,61.55-35.91A20.43,20.43,0,0,1,605.72,523,229.65,229.65,0,0,1,692,591.17c45.74-16.77,74-51,74-120.93C766,428.11,755.73,377.82,737.57,328.07ZM403.5,462.77c-29.31.66-56-16.2-74.82-43.51,17.53-28.13,43.47-46.17,72.78-46.83s56,16.19,74.82,43.51C458.75,444.07,432.81,462.11,403.5,462.77Zm291.82-13.18-32,32-32-32-32,32-32-32,32-32-32-32,32-32,32,32,32-32,32,32-32,32Z"/><path class="cls-4" d="M608.23,797l19.91,79.67,76.32-43.18V745l19.38,77.53,112.35-63.56L791.52,552.27c-14.94,33.92-40.68,58.77-77.2,74.12A225.14,225.14,0,0,1,731,668.71a40.94,40.94,0,0,1-52.72,49.75,438.27,438.27,0,0,0-46.73-13,157.07,157.07,0,0,1-234.6-1,443.86,443.86,0,0,0-51.23,14A40.94,40.94,0,0,1,293,668.71a224.86,224.86,0,0,1,16.69-42.33c-36.53-15.34-62.27-40.2-77.21-74.11L187.81,758.94,300.16,822.5,319.54,745v88.5l76.32,43.18L415.77,797v90.93L512,942.36l96.23-54.45Z"/><path class="cls-2" d="M253.91,298.43a580.06,580.06,0,0,1,43.55-87.64q11.93-19.51,24.69-36.64L273.78,92.79l-122-21.6,78.76,141,.06.07a44.81,44.81,0,1,0,23.27,86.13Z"/><path class="cls-2" d="M793.35,212.3l.07-.07,78.76-141-122,21.6-48.37,81.36q12.72,17.17,24.69,36.64a580.06,580.06,0,0,1,43.55,87.64,44.8,44.8,0,1,0,23.26-86.13Z"/></svg>