<svg version="1.1" xmlns="http://www.w3.org/2000/svg" xmlns:xlink="http://www.w3.org/1999/xlink" width="1164" height="434" viewBox="0 0 1164 434"><defs/><g transform="matrix(1,0,0,1,0,0)"><g><g><g><path fill="none" stroke="#d3d3d3" paint-order="fill stroke markers" d=" M 0 0 L 1200 0" stroke-miterlimit="10" stroke-opacity="0.8" stroke-dasharray="5"/></g><g><path fill="none" stroke="#d3d3d3" paint-order="fill stroke markers" d=" M 0 0 L 0 800" stroke-miterlimit="10" stroke-opacity="0.8" stroke-dasharray="5"/></g></g><g id="_E59FE3C6-69C2-48BF-951C-2DFA64DC270B" bpmn2nodeid="_E59FE3C6-69C2-48BF-951C-2DFA64DC270B" transform="matrix(1,0,0,1,93,305)"><g><path fill="none" stroke="none"/></g><g transform="matrix(0.125,0,0,0.125,0,0)"><g transform="matrix(1,0,0,1,0,0)"><path fill="#e8fae6" stroke="black" id="_E59FE3C6-69C2-48BF-951C-2DFA64DC270B?shapeType=BACKGROUND" paint-order="fill stroke markers" d=" M 0 0 M 444 224 C 444 263.9 434.2 300.8 414.4 334.5 C 394.7 368.2 368 394.9 334.4 414.5 C 300.79999999999995 434.1 263.9 444 224 444 C 184.10000000000002 444 147.2 434.2 113.5 414.4 C 79.8 394.7 53.1 368 33.5 334.4 C 13.899999999999999 300.79999999999995 4 263.9 4 224 C 4 184.10000000000002 13.8 147.2 33.6 113.5 C 53.400000000000006 79.80000000000001 80.1 53.1 113.6 33.5 C 147.1 13.899999999999999 184.1 4 224 4 C 263.9 4 300.8 13.8 334.5 33.6 C 368.2 53.400000000000006 394.9 80.1 414.5 113.6 C 434.1 147.1 444 184.1 444 224 Z" stroke-miterlimit="10" stroke-dasharray=""/></g><g><g transform="matrix(1,0,0,1,0,0)"><g transform="matrix(1,0,0,1,0,0)"><path fill="rgb(74,162,65)" stroke="black" id="_E59FE3C6-69C2-48BF-951C-2DFA64DC270B?shapeType=BORDER&amp;renderType=FILL" paint-order="fill stroke markers" d=" M 0 0 M 224 0 C 100.3 0 0 100.3 0 224 C 0 347.7 100.3 448 224 448 C 347.7 448 448 347.7 448 224 C 448 100.30000000000001 347.7 0 224 0 Z M 0 0 M 224 432 C 109.1 432 16 338.9 16 224 C 16 109.10000000000002 109.1 16 224 16 C 338.9 16 432 109.1 432 224 C 432 338.9 338.9 432 224 432 Z" stroke-miterlimit="10" stroke-dasharray=""/></g></g></g></g><g transform="matrix(1,0,0,1,28,61)"/></g><g transform="matrix(1,0,0,1,93,305)"/><g id="_529F098B-254D-4513-A80C-7545D74C0943" bpmn2nodeid="_529F098B-254D-4513-A80C-7545D74C0943" transform="matrix(1,0,0,1,690,305)"><g><path fill="none" stroke="none"/></g><g transform="matrix(0.125,0,0,0.125,0,0)"><g transform="matrix(1,0,0,1,0,0)"><path fill="#fef4ea" stroke="black" id="_529F098B-254D-4513-A80C-7545D74C0943?shapeType=BACKGROUND" paint-order="fill stroke markers" d=" M 0 0 M 224.4 4.3 C 216.4 4.3 208.4 7.3 202.3 13.399999999999999 L 13.5 202.2 C 1.3000000000000007 214.39999999999998 1.3000000000000007 234.2 13.5 246.39999999999998 L 202.2 435.09999999999997 C 208.29999999999998 441.2 216.39999999999998 444.2 224.29999999999998 444.2 C 232.2 444.2 240.29999999999998 441.2 246.39999999999998 435.09999999999997 L 435.09999999999997 246.39999999999998 C 447.29999999999995 234.2 447.29999999999995 214.39999999999998 435.09999999999997 202.2 L 246.5 13.4 C 240.4 7.3 232.4 4.3 224.4 4.3 L 224.4 4.3 Z" stroke-miterlimit="10" stroke-dasharray=""/></g><g><g transform="matrix(1,0,0,1,0,0)"><g transform="matrix(1,0,0,1,0,0)"><path fill="rgb(236,122,8)" stroke="black" id="_529F098B-254D-4513-A80C-7545D74C0943?shapeType=BORDER&amp;renderType=FILL" paint-order="fill stroke markers" d=" M 0 0 M 20.8 212.7 L 213.3 20.2 C 219.60000000000002 13.899999999999999 229.70000000000002 13.899999999999999 235.9 20.2 L 428.4 212.7 C 434.7 219 434.7 229.1 428.4 235.29999999999998 L 235.9 427.8 C 229.6 434.1 219.5 434.1 213.3 427.8 L 20.8 235.3 C 14.5 229.1 14.5 218.9 20.8 212.7 L 20.8 212.7 Z M 0 0 M 0 224 C 0 232.1 3.1 240.3 9.3 246.5 L 201.5 438.7 C 213.9 451.09999999999997 234.1 451.09999999999997 246.5 438.7 L 438.7 246.5 C 444.9 240.3 448 232.1 448 224 C 448 215.9 444.9 207.7 438.7 201.5 L 246.5 9.3 C 234.1 -3.0999999999999996 213.9 -3.0999999999999996 201.5 9.3 L 9.3 201.5 C 3.1 207.7 0 215.9 0 224 L 0 224 Z" stroke-miterlimit="10" stroke-dasharray=""/></g></g></g><g><g transform="matrix(1,0,0,1,0,0)"><g transform="matrix(1,0,0,1,0,0)"><path fill="#ec7a08" stroke="black" id="_529F098B-254D-4513-A80C-7545D74C0943_exclusive" paint-order="fill stroke markers" d=" M 0 0 M 298.2 269.2 C 298.2 272.59999999999997 297.09999999999997 275.3 294.7 277.7 L 277.7 294.7 C 275.3 297.09999999999997 272.59999999999997 298.2 269.2 298.2 C 265.8 298.2 263.09999999999997 297.09999999999997 260.7 294.7 L 224 258 L 187.2 294.8 C 184.79999999999998 297.2 182.1 298.3 178.7 298.3 C 175.29999999999998 298.3 172.6 297.2 170.2 294.8 L 153.2 277.8 C 150.79999999999998 275.40000000000003 149.7 272.7 149.7 269.3 C 149.7 265.90000000000003 150.79999999999998 263.2 153.2 260.8 L 190 224 L 153.2 187.2 C 150.79999999999998 184.79999999999998 149.7 182 149.7 178.7 C 149.7 175.29999999999998 150.79999999999998 172.5 153.2 170.2 L 170.2 153.2 C 172.6 150.79999999999998 175.29999999999998 149.7 178.7 149.7 C 182.1 149.7 184.79999999999998 150.79999999999998 187.2 153.2 L 224 190 L 260.8 153.2 C 263.2 150.79999999999998 265.90000000000003 149.7 269.3 149.7 C 272.7 149.7 275.40000000000003 150.79999999999998 277.8 153.2 L 294.8 170.2 C 297.2 172.5 298.3 175.29999999999998 298.3 178.7 C 298.3 182 297.2 184.79999999999998 294.8 187.2 L 258 224 L 294.8 260.8 C 297.1 263.1 298.2 265.9 298.2 269.2 Z" stroke-miterlimit="10" stroke-dasharray=""/></g></g></g></g><g transform="matrix(1,0,0,1,-24.515625,61)"><text fill="#000000" stroke="none" font-family="Open Sans" font-size="12pt" font-style="normal" font-weight="normal" text-decoration="normal" x="52.515625" y="12" text-anchor="middle" dominant-baseline="alphabetic">Approve idea?</text></g></g><g id="_B7688585-B360-43D5-982E-6B2E651128A6" bpmn2nodeid="_B7688585-B360-43D5-982E-6B2E651128A6" transform="matrix(1,0,0,1,1058.1525671127297,305)"><g><path fill="none" stroke="none"/></g><g transform="matrix(0.125,0,0,0.125,0,0)"><g transform="matrix(1,0,0,1,0,0)"><path fill="#fce7e7" stroke="black" id="_B7688585-B360-43D5-982E-6B2E651128A6?shapeType=BACKGROUND" paint-order="fill stroke markers" d=" M 0 0 M 444 224 C 444 263.9 434.2 300.8 414.4 334.5 C 394.7 368.2 368 394.9 334.4 414.5 C 300.79999999999995 434.1 263.9 444 224 444 C 184.10000000000002 444 147.2 434.2 113.5 414.4 C 79.8 394.7 53.1 368 33.5 334.4 C 13.899999999999999 300.79999999999995 4 263.9 4 224 C 4 184.10000000000002 13.8 147.2 33.6 113.5 C 53.400000000000006 79.80000000000001 80.1 53.1 113.6 33.5 C 147.1 13.899999999999999 184.1 4 224 4 C 263.9 4 300.8 13.8 334.5 33.6 C 368.2 53.400000000000006 394.9 80.1 414.5 113.6 C 434.1 147.1 444 184.1 444 224 Z" stroke-miterlimit="10" stroke-dasharray=""/></g><g><g transform="matrix(1,0,0,1,0,0)"><g transform="matrix(1,0,0,1,0,0)"><path fill="rgb(163,0,0)" stroke="black" id="_B7688585-B360-43D5-982E-6B2E651128A6?shapeType=BORDER&amp;renderType=FILL" paint-order="fill stroke markers" d=" M 0 0 M 224 0 C 100.3 0 0 100.3 0 224 C 0 347.7 100.3 448 224 448 C 347.7 448 448 347.7 448 224 C 448 100.30000000000001 347.7 0 224 0 Z M 0 0 M 224 400 C 126.8 400 48 321.2 48 224 C 48 126.80000000000001 126.8 48 224 48 C 321.2 48 400 126.8 400 224 C 400 321.2 321.2 400 224 400 Z" stroke-miterlimit="10" stroke-dasharray=""/></g></g></g></g><g transform="matrix(1,0,0,1,28,61)"/></g><g transform="matrix(1,0,0,1,1058.1525671127297,305)"/><g transform="matrix(1,0,0,1,690,305)"/><g id="_B70DC414-5F64-4E64-B7B4-9EAEDE4773D2" bpmn2nodeid="_B70DC414-5F64-4E64-B7B4-9EAEDE4773D2" transform="matrix(1,0,0,1,690,182)"><g><path fill="none" stroke="none"/></g><g transform="matrix(0.125,0,0,0.125,0,0)"><g transform="matrix(1,0,0,1,0,0)"><path fill="#fce7e7" stroke="black" id="_B70DC414-5F64-4E64-B7B4-9EAEDE4773D2?shapeType=BACKGROUND" paint-order="fill stroke markers" d=" M 0 0 M 444 224 C 444 263.9 434.2 300.8 414.4 334.5 C 394.7 368.2 368 394.9 334.4 414.5 C 300.79999999999995 434.1 263.9 444 224 444 C 184.10000000000002 444 147.2 434.2 113.5 414.4 C 79.8 394.7 53.1 368 33.5 334.4 C 13.899999999999999 300.79999999999995 4 263.9 4 224 C 4 184.10000000000002 13.8 147.2 33.6 113.5 C 53.400000000000006 79.80000000000001 80.1 53.1 113.6 33.5 C 147.1 13.899999999999999 184.1 4 224 4 C 263.9 4 300.8 13.8 334.5 33.6 C 368.2 53.400000000000006 394.9 80.1 414.5 113.6 C 434.1 147.1 444 184.1 444 224 Z" stroke-miterlimit="10" stroke-dasharray=""/></g><g><g transform="matrix(1,0,0,1,0,0)"><g transform="matrix(1,0,0,1,0,0)"><path fill="rgb(163,0,0)" stroke="black" id="_B70DC414-5F64-4E64-B7B4-9EAEDE4773D2?shapeType=BORDER&amp;renderType=FILL" paint-order="fill stroke markers" d=" M 0 0 M 224 0 C 100.3 0 0 100.3 0 224 C 0 347.7 100.3 448 224 448 C 347.7 448 448 347.7 448 224 C 448 100.30000000000001 347.7 0 224 0 Z M 0 0 M 224 400 C 126.8 400 48 321.2 48 224 C 48 126.80000000000001 126.8 48 224 48 C 321.2 48 400 126.8 400 224 C 400 321.2 321.2 400 224 400 Z" stroke-miterlimit="10" stroke-dasharray=""/></g></g></g></g><g transform="matrix(1,0,0,1,28,61)"/></g><g id="_F6B785D8-554A-4616-BAE8-274E26F9F726" bpmn2nodeid="_F6B785D8-554A-4616-BAE8-274E26F9F726"><g><path fill="none" stroke="rgb(0,0,0)" paint-order="fill stroke markers" d=" M 718 305 L 718 253" stroke-miterlimit="10" stroke-dasharray=""/></g><g transform="matrix(1,0,0,1,718,305)"/><g transform="matrix(1,0,0,1,713,238)"><path fill="rgb(0,0,0)" stroke="rgb(0,0,0)" paint-order="fill stroke markers" d=" M 10 15 L 0 15 L 5 0 Z" stroke-miterlimit="10" stroke-dasharray=""/></g><g transform="matrix(1,0,0,1,728,258.5)"><text fill="#000000" stroke="none" font-family="Open Sans" font-size="10pt" font-style="normal" font-weight="normal" text-decoration="normal" x="0" y="10.4" text-anchor="start" dominant-baseline="alphabetic">Neverever </text></g></g><g transform="matrix(1,0,0,1,690,182)"/><g id="_8D416606-2C8D-4D85-97C1-C51A0A6ED17F" bpmn2nodeid="_8D416606-2C8D-4D85-97C1-C51A0A6ED17F" transform="matrix(1,0,0,1,229,282)"><g><path fill="none" stroke="none"/></g><g transform="matrix(1,0,0,1,0,0)"><path fill="#ffffff" stroke="none" id="_8D416606-2C8D-4D85-97C1-C51A0A6ED17F?shapeType=BACKGROUND" paint-order="stroke fill markers" d=" M 2 0 L 152 0 L 152 0 A 2 2 0 0 1 154 2 L 154 100 L 154 100 A 2 2 0 0 1 152 102 L 2 102 L 2 102 A 2 2 0 0 1 0 100 L 0 2 L 0 2.0000000000000004 A 2 2 0 0 1 1.9999999999999996 0 Z"/></g><g transform="matrix(1,0,0,1,0,0)"><path fill="none" stroke="rgb(0,0,0)" id="_8D416606-2C8D-4D85-97C1-C51A0A6ED17F?shapeType=BORDER&amp;renderType=STROKE" paint-order="fill stroke markers" d=" M 2 0 L 152 0 L 152 0 A 2 2 0 0 1 154 2 L 154 100 L 154 100 A 2 2 0 0 1 152 102 L 2 102 L 2 102 A 2 2 0 0 1 0 100 L 0 2 L 0 2.0000000000000004 A 2 2 0 0 1 1.9999999999999996 0 Z" stroke-miterlimit="10" stroke-width="1.5" stroke-dasharray=""/></g><g><g transform="matrix(0.06,0,0,0.06,9.4,9.4)"><g transform="matrix(1,0,0,1,0,0)"><path fill="#393f44" stroke="black" id="_8D416606-2C8D-4D85-97C1-C51A0A6ED17F_task__slf4__kS2u" paint-order="fill stroke markers" d=" M 0 0 M 16 445.2101 C 16 440.86867 18.784312 431.12906000000004 22.001325 424.21728 C 35.767643 394.6402 77.282944 359.28049 129 333.08362 C 144.51625 325.22398 157.34689 319.96394 167.80739 317.17416 C 171.93153 316.07426 175.72913 314.41389999999996 176.5251 313.36265 C 178.89361 310.23449999999997 180.91404 302.90781 181.72673 294.5 L 182.5 286.5 L 178.50715 283.45457 C 166.30327 274.14645 154.2837 251.67767 148.03953 226.5 C 145.61086 216.70715 145.05603000000002 215.46246 142.98364 215.1579 C 141.70332000000002 214.96974 138.08302 212.24302 134.93852 209.09852 C 123.23314 197.39314000000002 116.89146000000001 177.37556 121.43982000000001 166.48978 C 123.00204000000001 162.75088 128.15457 159.00970999999998 131.75 159.00374 C 134.44781 158.99974 134.47062 158.60296 132.91375 138.78796 C 130.92658 113.4962 134.27903 92.26542699999999 143.13217 74.075676 C 152.23162 55.379835 167.56889 42.88208 189.04934 36.659507000000005 C 210.20334 30.531504000000005 237.79666 30.531504000000005 258.95065999999997 36.659507000000005 C 300.04166 48.562968000000005 318.95842 83.80634 314.95504999999997 141 C 314.31982999999997 150.075 313.62402 157.78816 313.4088 158.14035 C 313.19359 158.49254000000002 314.57532 159.07295000000002 316.47931 159.43014000000002 C 328.92867 161.76565000000002 330.98619 177.01772000000003 321.49638 196.62092 C 316.90319 206.10912000000002 309.35724 214.50797 304.81732 215.18517000000003 C 303.02259 215.45289000000002 302.2931 217.14618000000002 299.94277999999997 226.50000000000003 C 296.65948 239.56693 294.47402 245.30522000000002 287.94764 257.99534000000006 C 282.49071999999995 268.60596000000004 273.03466 281.10922000000005 268.10756999999995 284.2288300000001 L 264.87062 286.27832000000006 L 265.51815999999997 292.88916000000006 C 266.34490999999997 301.32961000000006 268.63948999999997 309.8706000000001 270.87735999999995 312.83742000000007 C 272.06735 314.4150200000001 275.00244999999995 315.78963000000005 280.0630699999999 317.13941000000005 C 291.06929999999994 320.0750300000001 303.61700999999994 325.27420000000006 320.99999999999994 334.10171 C 369.81470999999993 358.89104000000003 410.84810999999996 393.75797 425.03216 422.5 C 429.06985999999995 430.68183 432 440.23198 432 445.2101 L 432 448 L 224 448 L 16 448 L 16 445.2101 Z" stroke-miterlimit="10" stroke-dasharray=""/></g></g></g><g transform="matrix(1,0,0,1,4.039999999999992,13.680000000000007)"><g transform="matrix(0.04,0,0,0.04,63.36,69.12)"><g transform="matrix(1,0,0,1,0,0)"><path fill="none" stroke="none"/></g><g transform="matrix(1,0,0,1,0,0)"><path fill="none" stroke="none"/></g></g></g><g transform="matrix(1,0,0,1,35,43.5)"><text fill="#000000" stroke="none" font-family="Open Sans" font-size="12pt" font-style="normal" font-weight="normal" text-decoration="normal" x="43.19921875" y="12" text-anchor="middle" dominant-baseline="alphabetic">Report idea</text></g></g><g id="_EEACFA50-E30B-4D6E-9CA8-B1543D4195B4" bpmn2nodeid="_EEACFA50-E30B-4D6E-9CA8-B1543D4195B4"><g><path fill="none" stroke="#000000" paint-order="fill stroke markers" d=" M 149 333 L 214 333" stroke-miterlimit="10" stroke-dasharray=""/></g><g transform="matrix(1,0,0,1,149,333)"/><g transform="matrix(6.123233995736766e-17,1,-1,6.123233995736766e-17,229,328)"><path fill="#000000" stroke="#000000" paint-order="fill stroke markers" d=" M 10 15 L 0 15 L 5 0 Z" stroke-miterlimit="10" stroke-dasharray=""/></g><g transform="matrix(1,0,0,1,149,323)"/></g><g transform="matrix(1,0,0,1,229,282)"/><g id="_A8CEAB66-8D5D-43FF-B4AC-33C435F18DAD" bpmn2nodeid="_A8CEAB66-8D5D-43FF-B4AC-33C435F18DAD" transform="matrix(1,0,0,1,463,282)"><g><path fill="none" stroke="none"/></g><g transform="matrix(1,0,0,1,0,0)"><path fill="#ffffff" stroke="none" id="_A8CEAB66-8D5D-43FF-B4AC-33C435F18DAD?shapeType=BACKGROUND" paint-order="stroke fill markers" d=" M 2 0 L 152 0 L 152 0 A 2 2 0 0 1 154 2 L 154 100 L 154 100 A 2 2 0 0 1 152 102 L 2 102 L 2 102 A 2 2 0 0 1 0 100 L 0 2 L 0 2.0000000000000004 A 2 2 0 0 1 1.9999999999999996 0 Z"/></g><g transform="matrix(1,0,0,1,0,0)"><path fill="none" stroke="rgb(0,0,0)" id="_A8CEAB66-8D5D-43FF-B4AC-33C435F18DAD?shapeType=BORDER&amp;renderType=STROKE" paint-order="fill stroke markers" d=" M 2 0 L 152 0 L 152 0 A 2 2 0 0 1 154 2 L 154 100 L 154 100 A 2 2 0 0 1 152 102 L 2 102 L 2 102 A 2 2 0 0 1 0 100 L 0 2 L 0 2.0000000000000004 A 2 2 0 0 1 1.9999999999999996 0 Z" stroke-miterlimit="10" stroke-width="1.5" stroke-dasharray=""/></g><g><g transform="matrix(0.06,0,0,0.06,9.4,9.4)"><g transform="matrix(1,0,0,1,0,0)"><path fill="#393f44" stroke="black" id="_A8CEAB66-8D5D-43FF-B4AC-33C435F18DAD_task__slf4__kS2u" paint-order="fill stroke markers" d=" M 0 0 M 16 445.2101 C 16 440.86867 18.784312 431.12906000000004 22.001325 424.21728 C 35.767643 394.6402 77.282944 359.28049 129 333.08362 C 144.51625 325.22398 157.34689 319.96394 167.80739 317.17416 C 171.93153 316.07426 175.72913 314.41389999999996 176.5251 313.36265 C 178.89361 310.23449999999997 180.91404 302.90781 181.72673 294.5 L 182.5 286.5 L 178.50715 283.45457 C 166.30327 274.14645 154.2837 251.67767 148.03953 226.5 C 145.61086 216.70715 145.05603000000002 215.46246 142.98364 215.1579 C 141.70332000000002 214.96974 138.08302 212.24302 134.93852 209.09852 C 123.23314 197.39314000000002 116.89146000000001 177.37556 121.43982000000001 166.48978 C 123.00204000000001 162.75088 128.15457 159.00970999999998 131.75 159.00374 C 134.44781 158.99974 134.47062 158.60296 132.91375 138.78796 C 130.92658 113.4962 134.27903 92.26542699999999 143.13217 74.075676 C 152.23162 55.379835 167.56889 42.88208 189.04934 36.659507000000005 C 210.20334 30.531504000000005 237.79666 30.531504000000005 258.95065999999997 36.659507000000005 C 300.04166 48.562968000000005 318.95842 83.80634 314.95504999999997 141 C 314.31982999999997 150.075 313.62402 157.78816 313.4088 158.14035 C 313.19359 158.49254000000002 314.57532 159.07295000000002 316.47931 159.43014000000002 C 328.92867 161.76565000000002 330.98619 177.01772000000003 321.49638 196.62092 C 316.90319 206.10912000000002 309.35724 214.50797 304.81732 215.18517000000003 C 303.02259 215.45289000000002 302.2931 217.14618000000002 299.94277999999997 226.50000000000003 C 296.65948 239.56693 294.47402 245.30522000000002 287.94764 257.99534000000006 C 282.49071999999995 268.60596000000004 273.03466 281.10922000000005 268.10756999999995 284.2288300000001 L 264.87062 286.27832000000006 L 265.51815999999997 292.88916000000006 C 266.34490999999997 301.32961000000006 268.63948999999997 309.8706000000001 270.87735999999995 312.83742000000007 C 272.06735 314.4150200000001 275.00244999999995 315.78963000000005 280.0630699999999 317.13941000000005 C 291.06929999999994 320.0750300000001 303.61700999999994 325.27420000000006 320.99999999999994 334.10171 C 369.81470999999993 358.89104000000003 410.84810999999996 393.75797 425.03216 422.5 C 429.06985999999995 430.68183 432 440.23198 432 445.2101 L 432 448 L 224 448 L 16 448 L 16 445.2101 Z" stroke-miterlimit="10" stroke-dasharray=""/></g></g></g><g transform="matrix(1,0,0,1,4.039999999999992,13.680000000000007)"><g transform="matrix(0.04,0,0,0.04,63.36,69.12)"><g transform="matrix(1,0,0,1,0,0)"><path fill="none" stroke="none"/></g><g transform="matrix(1,0,0,1,0,0)"><path fill="none" stroke="none"/></g></g></g><g transform="matrix(1,0,0,1,35,43.5)"><text fill="#000000" stroke="none" font-family="Open Sans" font-size="12pt" font-style="normal" font-weight="normal" text-decoration="normal" x="47.703125" y="12" text-anchor="middle" dominant-baseline="alphabetic">Validate idea</text></g></g><g id="_809C4D5A-8158-43AF-A43A-616AEC067EF1" bpmn2nodeid="_809C4D5A-8158-43AF-A43A-616AEC067EF1"><g><path fill="none" stroke="#000000" paint-order="fill stroke markers" d=" M 383 333 L 448 333" stroke-miterlimit="10" stroke-dasharray=""/></g><g transform="matrix(1,0,0,1,383,333)"/><g transform="matrix(6.123233995736766e-17,1,-1,6.123233995736766e-17,463,328)"><path fill="#000000" stroke="#000000" paint-order="fill stroke markers" d=" M 10 15 L 0 15 L 5 0 Z" stroke-miterlimit="10" stroke-dasharray=""/></g><g transform="matrix(1,0,0,1,383,323)"/></g><g id="_BFB087A6-9A72-4BEB-9077-959CCF412D25" bpmn2nodeid="_BFB087A6-9A72-4BEB-9077-959CCF412D25"><g><path fill="none" stroke="rgb(0,0,0)" paint-order="fill stroke markers" d=" M 617 333 L 675 333" stroke-miterlimit="10" stroke-dasharray=""/></g><g transform="matrix(1,0,0,1,617,333)"/><g transform="matrix(6.123233995736766e-17,1,-1,6.123233995736766e-17,690,328)"><path fill="rgb(0,0,0)" stroke="rgb(0,0,0)" paint-order="fill stroke markers" d=" M 10 15 L 0 15 L 5 0 Z" stroke-miterlimit="10" stroke-dasharray=""/></g><g transform="matrix(1,0,0,1,617,323)"/></g><g transform="matrix(1,0,0,1,463,282)"/><g id="_FC3783D7-4B23-4F86-95EB-E482BA866E3D" bpmn2nodeid="_FC3783D7-4B23-4F86-95EB-E482BA866E3D" transform="matrix(1,0,0,1,868,282)"><g><path fill="none" stroke="none"/></g><g transform="matrix(1,0,0,1,0,0)"><path fill="#ffffff" stroke="none" id="_FC3783D7-4B23-4F86-95EB-E482BA866E3D?shapeType=BACKGROUND" paint-order="stroke fill markers" d=" M 2 0 L 152 0 L 152 0 A 2 2 0 0 1 154 2 L 154 100 L 154 100 A 2 2 0 0 1 152 102 L 2 102 L 2 102 A 2 2 0 0 1 0 100 L 0 2 L 0 2.0000000000000004 A 2 2 0 0 1 1.9999999999999996 0 Z"/></g><g transform="matrix(1,0,0,1,0,0)"><path fill="none" stroke="rgb(0,0,0)" id="_FC3783D7-4B23-4F86-95EB-E482BA866E3D?shapeType=BORDER&amp;renderType=STROKE" paint-order="fill stroke markers" d=" M 2 0 L 152 0 L 152 0 A 2 2 0 0 1 154 2 L 154 100 L 154 100 A 2 2 0 0 1 152 102 L 2 102 L 2 102 A 2 2 0 0 1 0 100 L 0 2 L 0 2.0000000000000004 A 2 2 0 0 1 1.9999999999999996 0 Z" stroke-miterlimit="10" stroke-width="1.5" stroke-dasharray=""/></g><g><g transform="matrix(0.02,0,0,0.02,1.96,1.96)"><g transform="matrix(1,0,0,1,0,0)"><path fill="#393f44" stroke="black" id="_FC3783D7-4B23-4F86-95EB-E482BA866E3D_task__zHoh__gqgL" paint-order="fill stroke markers" d=" M 0 0 M 825.74609 438.17383 C 825.69979 475.1723 825.75629 512.17163 825.85156 549.16992 C 794.29829 558.09661 765.46524 570.55412 738.23633 585.8144500000001 L 658.6542999999999 507.1894500000001 L 509.8476599999999 656.85742 L 589.42383 735.46875 C 574.05216 763.02029 562.0487099999999 792.29945 553.67188 822.7109399999999 L 440.94727 822.9160199999999 L 440.94727 1033.7051 L 554.84961 1033.2948999999999 C 565.26551 1074.5932999999998 587.93422 1111.7200999999998 610.51172 1144.918 L 610.51172 963.0937499999999 L 510.94727 963.4511699999999 L 510.94727 892.78906 L 610.01562 892.60938 L 615.57617 864.4375 C 623.68569 823.35291 639.74603 784.18805 662.8203100000001 749.14453 L 678.6054700000001 725.17188 L 609.0019500000001 656.41016 L 659.0957000000001 606.02539 L 728.82617 674.91797 L 752.55664 659.0820299999999 C 788.8205 635.15649 828.48451 619.1185099999999 868.03711 610.7656199999999 L 895.99609 604.9609399999999 L 895.74609 508.1757799999999 L 967.71289 508.1757799999999 L 967.15625 604.4570299999999 L 995.58398 604.4570299999999 L 1155.9902 604.4570299999999 C 1138.2767999999999 583.3133799999999 1064.8698 555.7993799999999 1037.4823999999999 548.13281 L 1038.1172 438.1757799999999 C 959.7171599999999 438.1737799999999 898.2517399999999 438.17977999999994 825.7460899999999 438.1737799999999 Z M 0 0 M 1024.9043 639.83203 L 1025.1914 750.82422 C 993.6369799999999 759.75091 964.80383 772.20673 937.57422 787.46875 L 857.99023 708.84375 L 709.18359 858.51172 L 788.76172 937.1230499999999 C 773.38937 964.67608 761.3846199999999 993.9542999999999 753.00781 1024.3672 L 640.2851599999999 1024.5702999999999 L 640.2851599999999 1235.3593999999998 L 754.1855499999999 1234.9511999999997 C 763.1509799999999 1266.2081999999998 775.5796899999999 1294.7509999999997 790.8105499999999 1321.6972999999998 L 709.3164099999999 1402.8729999999998 L 859.7812499999999 1550.7519999999997 L 940.9824199999999 1469.9276999999997 C 968.7967199999999 1485.3723999999997 998.3629 1497.3636999999997 1029.0156 1505.7089999999998 L 1029.0686 1620.4218999999998 C 1101.4603 1621.0557 1178.5356000000002 1620.7291999999998 1240.4045 1620.7226999999998 L 1240.4045 1504.6522999999997 C 1271.9823000000001 1495.7484999999997 1300.9055 1483.2013999999997 1328.1408000000001 1467.9472999999998 L 1409.2756000000002 1547.9433999999999 L 1558.1799 1398.4629 L 1476.8752000000002 1318.3398 C 1492.2822 1290.7142 1504.2876 1261.3861 1512.6740000000002 1230.9414 L 1623.0529000000001 1230.2598 L 1623.0529000000001 1019.6738 L 1511.4357000000002 1020.3535 C 1502.4633000000001 989.0665200000001 1490.2144000000003 960.7167400000001 1474.7814000000003 933.5918 L 1551.9025000000004 856.27344 L 1401.5217000000005 708.1425800000001 L 1324.5002000000004 785.4277300000001 C 1296.7999000000004 770.1087700000002 1267.3539000000005 758.1453700000001 1236.8205000000005 749.7890600000001 L 1237.4533000000006 639.83203 L 1024.9045000000006 639.83203 Z M 0 0 M 1095.0839999999998 709.83203 L 1167.0507999999998 709.83203 L 1166.4960999999998 806.11523 L 1194.9218999999998 811.69336 C 1236.1942999999999 819.79239 1275.7524999999998 835.83275 1310.9374999999998 858.76562 L 1334.7616999999998 874.29492 L 1401.9784999999997 806.84961 L 1452.5956999999996 856.7109399999999 L 1385.2851999999996 924.19336 L 1401.4804999999997 948.09961 C 1425.2451999999996 983.9725 1441.0087999999996 1022.7495 1449.9081999999996 1062.6797 L 1455.7636999999995 1090.6914 L 1553.0448999999994 1090.0996 L 1553.0448999999994 1160.6895 L 1456.3065999999994 1161.2852 L 1450.7499999999995 1189.2969 C 1442.5901999999996 1230.4276 1426.5648999999996 1269.5910000000001 1403.4511999999995 1304.6953 L 1387.6483999999996 1328.7012000000002 L 1458.9061999999997 1398.9238000000003 L 1408.8202999999996 1449.2031000000002 L 1337.5546999999997 1378.9375000000002 L 1313.8651999999997 1394.6758000000002 C 1277.5899999999997 1418.3823000000002 1238.2405999999996 1434.7985 1198.5409999999997 1442.8867000000002 L 1170.3964999999996 1448.5078000000003 L 1170.3964999999996 1550.7227000000003 C 1151.1554999999996 1550.7697000000003 1130.1655999999996 1550.7397000000003 1099.0272999999995 1550.6957000000002 L 1098.9822999999994 1449.2465000000002 L 1070.7107999999994 1443.7250000000001 C 1029.3806999999995 1435.6542000000002 989.8875999999993 1419.6875000000002 954.7635699999994 1396.6586000000002 L 931.0096699999993 1381.0844000000002 L 859.4686499999993 1452.2953000000002 L 808.8436499999993 1402.5375000000001 L 880.4842799999993 1331.1762 L 864.1366199999993 1307.1723000000002 C 840.3497899999993 1271.3781000000001 824.6137199999993 1232.5600000000002 815.6991199999993 1192.6762 L 809.8495099999993 1164.7504000000001 L 710.2850599999994 1165.1059 L 710.2850599999994 1094.4457 L 809.3534199999993 1094.2641 L 814.9139599999993 1066.0961000000002 C 823.0235399999993 1025.0112000000001 839.0841299999993 985.8442300000002 862.1580999999993 950.8011800000002 L 877.9432599999993 926.8265700000002 L 808.3377899999994 858.0648500000002 L 858.4315399999994 807.6800900000002 L 928.1639599999994 876.5726700000001 L 951.8944299999994 860.7386800000002 C 988.2042899999993 836.9689600000002 1026.7352999999994 821.1972900000002 1067.3748999999993 812.4242300000002 L 1095.3357999999994 806.6195400000001 L 1095.0838999999994 709.8324300000002 Z M 0 0 M 1132.2499999999998 967.03516 C 1045.6030999999998 967.03516 974.6113299999997 1038.0288 974.6113299999997 1124.6758 C 974.6113299999997 1211.3228 1045.6030999999998 1282.3125 1132.2499999999998 1282.3125 C 1218.8968999999997 1282.3125 1289.8886999999997 1211.3228 1289.8886999999997 1124.6758 C 1289.8886999999997 1038.0288 1218.8968999999997 967.03516 1132.2499999999998 967.03516 Z M 0 0 M 1132.2499999999998 1037.0352 C 1181.0661999999998 1037.0352 1219.8886999999997 1075.8597 1219.8886999999997 1124.6758 C 1219.8886999999997 1173.4919 1181.0661999999998 1212.3125 1132.2499999999998 1212.3125 C 1083.4337999999998 1212.3125 1044.6132999999998 1173.4919 1044.6132999999998 1124.6758 C 1044.6132999999998 1075.8597 1083.4337999999998 1037.0352 1132.2499999999998 1037.0352 Z" stroke-miterlimit="10" stroke-dasharray=""/></g><g transform="matrix(1,0,0,1,0,0)"><path fill="none" stroke="black" id="_FC3783D7-4B23-4F86-95EB-E482BA866E3D_task__zHoh__x8LR" paint-order="fill stroke markers" d=" M 0 0 M 825.74609 438.17383 C 825.69979 475.1723 825.75629 512.17163 825.85156 549.16992 C 794.29829 558.09661 765.46524 570.55412 738.23633 585.8144500000001 L 658.6542999999999 507.1894500000001 L 509.8476599999999 656.85742 L 589.42383 735.46875 C 574.05216 763.02029 562.0487099999999 792.29945 553.67188 822.7109399999999 L 440.94727 822.9160199999999 L 440.94727 1033.7051 L 554.84961 1033.2948999999999 C 565.26551 1074.5932999999998 587.93422 1111.7200999999998 610.51172 1144.918 L 610.51172 963.0937499999999 L 510.94727 963.4511699999999 L 510.94727 892.78906 L 610.01562 892.60938 L 615.57617 864.4375 C 623.68569 823.35291 639.74603 784.18805 662.8203100000001 749.14453 L 678.6054700000001 725.17188 L 609.0019500000001 656.41016 L 659.0957000000001 606.02539 L 728.82617 674.91797 L 752.55664 659.0820299999999 C 788.8205 635.15649 828.48451 619.1185099999999 868.03711 610.7656199999999 L 895.99609 604.9609399999999 L 895.74609 508.1757799999999 L 967.71289 508.1757799999999 L 967.15625 604.4570299999999 L 995.58398 604.4570299999999 L 1155.9902 604.4570299999999 C 1138.2767999999999 583.3133799999999 1064.8698 555.7993799999999 1037.4823999999999 548.13281 L 1038.1172 438.1757799999999 C 959.7171599999999 438.1737799999999 898.2517399999999 438.17977999999994 825.7460899999999 438.1737799999999 Z M 0 0 M 1024.9043 639.83203 L 1025.1914 750.82422 C 993.6369799999999 759.75091 964.80383 772.20673 937.57422 787.46875 L 857.99023 708.84375 L 709.18359 858.51172 L 788.76172 937.1230499999999 C 773.38937 964.67608 761.3846199999999 993.9542999999999 753.00781 1024.3672 L 640.2851599999999 1024.5702999999999 L 640.2851599999999 1235.3593999999998 L 754.1855499999999 1234.9511999999997 C 763.1509799999999 1266.2081999999998 775.5796899999999 1294.7509999999997 790.8105499999999 1321.6972999999998 L 709.3164099999999 1402.8729999999998 L 859.7812499999999 1550.7519999999997 L 940.9824199999999 1469.9276999999997 C 968.7967199999999 1485.3723999999997 998.3629 1497.3636999999997 1029.0156 1505.7089999999998 L 1029.0686 1620.4218999999998 C 1101.4603 1621.0557 1178.5356000000002 1620.7291999999998 1240.4045 1620.7226999999998 L 1240.4045 1504.6522999999997 C 1271.9823000000001 1495.7484999999997 1300.9055 1483.2013999999997 1328.1408000000001 1467.9472999999998 L 1409.2756000000002 1547.9433999999999 L 1558.1799 1398.4629 L 1476.8752000000002 1318.3398 C 1492.2822 1290.7142 1504.2876 1261.3861 1512.6740000000002 1230.9414 L 1623.0529000000001 1230.2598 L 1623.0529000000001 1019.6738 L 1511.4357000000002 1020.3535 C 1502.4633000000001 989.0665200000001 1490.2144000000003 960.7167400000001 1474.7814000000003 933.5918 L 1551.9025000000004 856.27344 L 1401.5217000000005 708.1425800000001 L 1324.5002000000004 785.4277300000001 C 1296.7999000000004 770.1087700000002 1267.3539000000005 758.1453700000001 1236.8205000000005 749.7890600000001 L 1237.4533000000006 639.83203 L 1024.9045000000006 639.83203 Z M 0 0 M 1095.0839999999998 709.83203 L 1167.0507999999998 709.83203 L 1166.4960999999998 806.11523 L 1194.9218999999998 811.69336 C 1236.1942999999999 819.79239 1275.7524999999998 835.83275 1310.9374999999998 858.76562 L 1334.7616999999998 874.29492 L 1401.9784999999997 806.84961 L 1452.5956999999996 856.7109399999999 L 1385.2851999999996 924.19336 L 1401.4804999999997 948.09961 C 1425.2451999999996 983.9725 1441.0087999999996 1022.7495 1449.9081999999996 1062.6797 L 1455.7636999999995 1090.6914 L 1553.0448999999994 1090.0996 L 1553.0448999999994 1160.6895 L 1456.3065999999994 1161.2852 L 1450.7499999999995 1189.2969 C 1442.5901999999996 1230.4276 1426.5648999999996 1269.5910000000001 1403.4511999999995 1304.6953 L 1387.6483999999996 1328.7012000000002 L 1458.9061999999997 1398.9238000000003 L 1408.8202999999996 1449.2031000000002 L 1337.5546999999997 1378.9375000000002 L 1313.8651999999997 1394.6758000000002 C 1277.5899999999997 1418.3823000000002 1238.2405999999996 1434.7985 1198.5409999999997 1442.8867000000002 L 1170.3964999999996 1448.5078000000003 L 1170.3964999999996 1550.7227000000003 C 1151.1554999999996 1550.7697000000003 1130.1655999999996 1550.7397000000003 1099.0272999999995 1550.6957000000002 L 1098.9822999999994 1449.2465000000002 L 1070.7107999999994 1443.7250000000001 C 1029.3806999999995 1435.6542000000002 989.8875999999993 1419.6875000000002 954.7635699999994 1396.6586000000002 L 931.0096699999993 1381.0844000000002 L 859.4686499999993 1452.2953000000002 L 808.8436499999993 1402.5375000000001 L 880.4842799999993 1331.1762 L 864.1366199999993 1307.1723000000002 C 840.3497899999993 1271.3781000000001 824.6137199999993 1232.5600000000002 815.6991199999993 1192.6762 L 809.8495099999993 1164.7504000000001 L 710.2850599999994 1165.1059 L 710.2850599999994 1094.4457 L 809.3534199999993 1094.2641 L 814.9139599999993 1066.0961000000002 C 823.0235399999993 1025.0112000000001 839.0841299999993 985.8442300000002 862.1580999999993 950.8011800000002 L 877.9432599999993 926.8265700000002 L 808.3377899999994 858.0648500000002 L 858.4315399999994 807.6800900000002 L 928.1639599999994 876.5726700000001 L 951.8944299999994 860.7386800000002 C 988.2042899999993 836.9689600000002 1026.7352999999994 821.1972900000002 1067.3748999999993 812.4242300000002 L 1095.3357999999994 806.6195400000001 L 1095.0838999999994 709.8324300000002 Z M 0 0 M 1132.2499999999998 967.03516 C 1045.6030999999998 967.03516 974.6113299999997 1038.0288 974.6113299999997 1124.6758 C 974.6113299999997 1211.3228 1045.6030999999998 1282.3125 1132.2499999999998 1282.3125 C 1218.8968999999997 1282.3125 1289.8886999999997 1211.3228 1289.8886999999997 1124.6758 C 1289.8886999999997 1038.0288 1218.8968999999997 967.03516 1132.2499999999998 967.03516 Z M 0 0 M 1132.2499999999998 1037.0352 C 1181.0661999999998 1037.0352 1219.8886999999997 1075.8597 1219.8886999999997 1124.6758 C 1219.8886999999997 1173.4919 1181.0661999999998 1212.3125 1132.2499999999998 1212.3125 C 1083.4337999999998 1212.3125 1044.6132999999998 1173.4919 1044.6132999999998 1124.6758 C 1044.6132999999998 1075.8597 1083.4337999999998 1037.0352 1132.2499999999998 1037.0352 Z" stroke-miterlimit="10" stroke-dasharray=""/></g><g transform="matrix(1,0,0,1,0,0)"><path fill="#393f44" stroke="black" id="_FC3783D7-4B23-4F86-95EB-E482BA866E3D_task__zHoh__el7r" paint-order="fill stroke markers" d=" M 0 0 M 825.74609 438.17383 C 825.69979 475.1723 825.75629 512.17163 825.85156 549.16992 C 794.29829 558.09661 765.46524 570.55412 738.23633 585.8144500000001 L 658.6542999999999 507.1894500000001 L 509.8476599999999 656.85742 L 589.42383 735.46875 C 574.05216 763.02029 562.0487099999999 792.29945 553.67188 822.7109399999999 L 440.94727 822.9160199999999 L 440.94727 1033.7051 L 554.84961 1033.2948999999999 C 565.26551 1074.5932999999998 587.93422 1111.7200999999998 610.51172 1144.918 L 610.51172 963.0937499999999 L 510.94727 963.4511699999999 L 510.94727 892.78906 L 610.01562 892.60938 L 615.57617 864.4375 C 623.68569 823.35291 639.74603 784.18805 662.8203100000001 749.14453 L 678.6054700000001 725.17188 L 609.0019500000001 656.41016 L 659.0957000000001 606.02539 L 728.82617 674.91797 L 752.55664 659.0820299999999 C 788.8205 635.15649 828.48451 619.1185099999999 868.03711 610.7656199999999 L 895.99609 604.9609399999999 L 895.74609 508.1757799999999 L 967.71289 508.1757799999999 L 967.15625 604.4570299999999 L 995.58398 604.4570299999999 L 1155.9902 604.4570299999999 C 1138.2767999999999 583.3133799999999 1064.8698 555.7993799999999 1037.4823999999999 548.13281 L 1038.1172 438.1757799999999 C 959.7171599999999 438.1737799999999 898.2517399999999 438.17977999999994 825.7460899999999 438.1737799999999 Z M 0 0 M 1024.9043 639.83203 L 1025.1914 750.82422 C 993.6369799999999 759.75091 964.80383 772.20673 937.57422 787.46875 L 857.99023 708.84375 L 709.18359 858.51172 L 788.76172 937.1230499999999 C 773.38937 964.67608 761.3846199999999 993.9542999999999 753.00781 1024.3672 L 640.2851599999999 1024.5702999999999 L 640.2851599999999 1235.3593999999998 L 754.1855499999999 1234.9511999999997 C 763.1509799999999 1266.2081999999998 775.5796899999999 1294.7509999999997 790.8105499999999 1321.6972999999998 L 709.3164099999999 1402.8729999999998 L 859.7812499999999 1550.7519999999997 L 940.9824199999999 1469.9276999999997 C 968.7967199999999 1485.3723999999997 998.3629 1497.3636999999997 1029.0156 1505.7089999999998 L 1029.0686 1620.4218999999998 C 1101.4603 1621.0557 1178.5356000000002 1620.7291999999998 1240.4045 1620.7226999999998 L 1240.4045 1504.6522999999997 C 1271.9823000000001 1495.7484999999997 1300.9055 1483.2013999999997 1328.1408000000001 1467.9472999999998 L 1409.2756000000002 1547.9433999999999 L 1558.1799 1398.4629 L 1476.8752000000002 1318.3398 C 1492.2822 1290.7142 1504.2876 1261.3861 1512.6740000000002 1230.9414 L 1623.0529000000001 1230.2598 L 1623.0529000000001 1019.6738 L 1511.4357000000002 1020.3535 C 1502.4633000000001 989.0665200000001 1490.2144000000003 960.7167400000001 1474.7814000000003 933.5918 L 1551.9025000000004 856.27344 L 1401.5217000000005 708.1425800000001 L 1324.5002000000004 785.4277300000001 C 1296.7999000000004 770.1087700000002 1267.3539000000005 758.1453700000001 1236.8205000000005 749.7890600000001 L 1237.4533000000006 639.83203 L 1024.9045000000006 639.83203 Z M 0 0 M 1095.0839999999998 709.83203 L 1167.0507999999998 709.83203 L 1166.4960999999998 806.11523 L 1194.9218999999998 811.69336 C 1236.1942999999999 819.79239 1275.7524999999998 835.83275 1310.9374999999998 858.76562 L 1334.7616999999998 874.29492 L 1401.9784999999997 806.84961 L 1452.5956999999996 856.7109399999999 L 1385.2851999999996 924.19336 L 1401.4804999999997 948.09961 C 1425.2451999999996 983.9725 1441.0087999999996 1022.7495 1449.9081999999996 1062.6797 L 1455.7636999999995 1090.6914 L 1553.0448999999994 1090.0996 L 1553.0448999999994 1160.6895 L 1456.3065999999994 1161.2852 L 1450.7499999999995 1189.2969 C 1442.5901999999996 1230.4276 1426.5648999999996 1269.5910000000001 1403.4511999999995 1304.6953 L 1387.6483999999996 1328.7012000000002 L 1458.9061999999997 1398.9238000000003 L 1408.8202999999996 1449.2031000000002 L 1337.5546999999997 1378.9375000000002 L 1313.8651999999997 1394.6758000000002 C 1277.5899999999997 1418.3823000000002 1238.2405999999996 1434.7985 1198.5409999999997 1442.8867000000002 L 1170.3964999999996 1448.5078000000003 L 1170.3964999999996 1550.7227000000003 C 1151.1554999999996 1550.7697000000003 1130.1655999999996 1550.7397000000003 1099.0272999999995 1550.6957000000002 L 1098.9822999999994 1449.2465000000002 L 1070.7107999999994 1443.7250000000001 C 1029.3806999999995 1435.6542000000002 989.8875999999993 1419.6875000000002 954.7635699999994 1396.6586000000002 L 931.0096699999993 1381.0844000000002 L 859.4686499999993 1452.2953000000002 L 808.8436499999993 1402.5375000000001 L 880.4842799999993 1331.1762 L 864.1366199999993 1307.1723000000002 C 840.3497899999993 1271.3781000000001 824.6137199999993 1232.5600000000002 815.6991199999993 1192.6762 L 809.8495099999993 1164.7504000000001 L 710.2850599999994 1165.1059 L 710.2850599999994 1094.4457 L 809.3534199999993 1094.2641 L 814.9139599999993 1066.0961000000002 C 823.0235399999993 1025.0112000000001 839.0841299999993 985.8442300000002 862.1580999999993 950.8011800000002 L 877.9432599999993 926.8265700000002 L 808.3377899999994 858.0648500000002 L 858.4315399999994 807.6800900000002 L 928.1639599999994 876.5726700000001 L 951.8944299999994 860.7386800000002 C 988.2042899999993 836.9689600000002 1026.7352999999994 821.1972900000002 1067.3748999999993 812.4242300000002 L 1095.3357999999994 806.6195400000001 L 1095.0838999999994 709.8324300000002 Z M 0 0 M 1132.2499999999998 967.03516 C 1045.6030999999998 967.03516 974.6113299999997 1038.0288 974.6113299999997 1124.6758 C 974.6113299999997 1211.3228 1045.6030999999998 1282.3125 1132.2499999999998 1282.3125 C 1218.8968999999997 1282.3125 1289.8886999999997 1211.3228 1289.8886999999997 1124.6758 C 1289.8886999999997 1038.0288 1218.8968999999997 967.03516 1132.2499999999998 967.03516 Z M 0 0 M 1132.2499999999998 1037.0352 C 1181.0661999999998 1037.0352 1219.8886999999997 1075.8597 1219.8886999999997 1124.6758 C 1219.8886999999997 1173.4919 1181.0661999999998 1212.3125 1132.2499999999998 1212.3125 C 1083.4337999999998 1212.3125 1044.6132999999998 1173.4919 1044.6132999999998 1124.6758 C 1044.6132999999998 1075.8597 1083.4337999999998 1037.0352 1132.2499999999998 1037.0352 Z" stroke-miterlimit="10" stroke-dasharray=""/></g></g></g><g transform="matrix(1,0,0,1,45.69140625,43.5)"><text fill="#000000" stroke="none" font-family="Open Sans" font-size="12pt" font-style="normal" font-weight="normal" text-decoration="normal" x="31.30859375" y="12" text-anchor="middle" dominant-baseline="alphabetic">Log idea</text></g></g><g id="_2EBC379B-36F0-42ED-B168-72C7AB462E9E" bpmn2nodeid="_2EBC379B-36F0-42ED-B168-72C7AB462E9E"><g><path fill="none" stroke="rgb(0,0,0)" paint-order="fill stroke markers" d=" M 746 333 L 853 333" stroke-miterlimit="10" stroke-dasharray=""/></g><g transform="matrix(1,0,0,1,746,333)"/><g transform="matrix(6.123233995736766e-17,1,-1,6.123233995736766e-17,868,328)"><path fill="rgb(0,0,0)" stroke="rgb(0,0,0)" paint-order="fill stroke markers" d=" M 10 15 L 0 15 L 5 0 Z" stroke-miterlimit="10" stroke-dasharray=""/></g><g transform="matrix(1,0,0,1,746,310)"><text fill="#000000" stroke="none" font-family="Open Sans" font-size="10pt" font-style="normal" font-weight="normal" text-decoration="normal" x="0" y="10.4" text-anchor="start" dominant-baseline="alphabetic">OKIDOKI                    </text></g></g><g id="_4C283247-8C71-453C-9C45-09448347537E" bpmn2nodeid="_4C283247-8C71-453C-9C45-09448347537E"><g><path fill="none" stroke="rgb(0,0,0)" paint-order="fill stroke markers" d=" M 1022 333 L 1043.1525671127297 333" stroke-miterlimit="10" stroke-dasharray=""/></g><g transform="matrix(1,0,0,1,1022,333)"/><g transform="matrix(6.123233995736766e-17,1,-1,6.123233995736766e-17,1058.1525671127297,328)"><path fill="rgb(0,0,0)" stroke="rgb(0,0,0)" paint-order="fill stroke markers" d=" M 10 15 L 0 15 L 5 0 Z" stroke-miterlimit="10" stroke-dasharray=""/></g><g transform="matrix(1,0,0,1,1022,323)"/></g><g transform="matrix(1,0,0,1,868,282)"/></g></g></svg>